<?xml version="1.0" encoding="utf-8"?>
<!-- Generator: Adobe Illustrator 18.1.1, SVG Export Plug-In . SVG Version: 6.00 Build 0)  -->
<svg version="1.1" id="Layer_1" xmlns="http://www.w3.org/2000/svg" xmlns:xlink="http://www.w3.org/1999/xlink" x="0px" y="0px"
	 viewBox="0 0 123.3 24.8" enable-background="new 0 0 123.3 24.8" xml:space="preserve">
<g>
	<g>
		<polygon fill="#FFFFFF" points="121.1,7.8 117.5,18 113.6,18 110.5,7.8 113.6,7.8 115.7,14.4 118.1,7.8 		"/>
	</g>
	<path fill="#FFFFFF" d="M65.5,10.5V15c0,0.2,0.1,0.4,0.2,0.4c0.5,0.1,2.2,0,2.2,0V18c0,0-2.1,0-2.2,0c-0.9,0-1.6-0.2-2.1-0.7
		c-0.5-0.4-0.8-1.1-0.8-2.1v-4.8H61V7.8h1.7V2.6h2.8v5.2h2.4v2.7H65.5z"/>
	<path fill="#FFFFFF" d="M49.7,12.9c0,0.9,0.2,1.7,0.6,2.4c0.8,1.6,2.5,2.7,4.4,2.7l5.1,0V7.8h-5v0c-1.9,0-3.6,1.1-4.4,2.7
		C49.9,11.2,49.7,12,49.7,12.9z M52.4,12.9c0-1.3,1.1-2.4,2.4-2.4H57v4.7c0,0-2.4,0-2.4,0C53.4,15.1,52.4,14.1,52.4,12.9z"/>
	<path fill="#FFFFFF" d="M73.3,12.9c0,0.9,0.2,1.7,0.6,2.4c0.8,1.6,2.5,2.7,4.4,2.7l5.1,0V7.8h-5v0c-1.9,0-3.6,1.1-4.4,2.7
		C73.5,11.2,73.3,12,73.3,12.9z M76,12.9c0-1.3,1.1-2.4,2.4-2.4h2.3v4.7h-2.1c-0.1,0-0.1,0-0.2,0c-0.1,0-0.1,0-0.2,0
		C76.9,15.1,76,14.1,76,12.9z"/>
	<rect x="69.4" y="7.8" fill="#FFFFFF" width="2.7" height="10.2"/>
	<rect x="84.8" y="2.6" fill="#FFFFFF" width="2.7" height="15.4"/>
	<path fill="#FFFFFF" d="M104.4,7.8L104.4,7.8c-1.9,0-3.6,1.1-4.4,2.7c-0.4,0.7-0.6,1.5-0.6,2.4c0,0.9,0.2,1.7,0.6,2.4
		c0.2,0.4,0.5,0.7,0.8,1.1c0.6,0.7,1.4,1.2,2.4,1.5c0.4,0.1,0.8,0.2,1.2,0.2h5.1v-2.7l-3.8,0l3.8-3.7V7.8H104.4z M102.7,14.4
		c-0.4-0.4-0.6-1-0.6-1.5c0-1.3,1.1-2.4,2.4-2.4h2.2L102.7,14.4z"/>
	<path fill="#FFFFFF" d="M48.5,10.5c-0.8-1.6-2.5-2.7-4.4-2.7v0h-5v15.3h2.7V18h2.4c1.9,0,3.5-1.2,4.4-2.7c0.4-0.7,0.6-1.5,0.6-2.4
		C49.1,12,48.9,11.2,48.5,10.5z M44.2,15.2c-0.1,0-2.4,0-2.4,0v-4.7H44c1.3,0,2.4,1.1,2.4,2.4C46.4,14.1,45.4,15.1,44.2,15.2z"/>
	<path fill="#FFFFFF" d="M89.1,15.2c0.8,1.6,2.5,2.7,4.4,2.7v0h5V2.6h-2.7v5.2h-2.4c-1.9,0-3.5,1.1-4.4,2.7
		c-0.4,0.7-0.6,1.5-0.6,2.4C88.5,13.7,88.7,14.5,89.1,15.2z M93.4,10.5c0.1,0,2.4,0,2.4,0v4.7h-2.3c-1.3,0-2.4-1.1-2.4-2.4
		C91.2,11.6,92.2,10.6,93.4,10.5z"/>
	<path fill="#FFFFFF" d="M37.9,13.7c-0.4-1.2-1.6-2.1-2.9-2.1c0,0-4.2,0-4.2,0c-0.3,0-0.5-0.3-0.5-0.6c0-0.4,0.3-0.6,0.6-0.6l6,0v0
		V7.8h-6.1c-1.2,0-2.3,0.7-2.8,1.7c0,0,0,0,0,0c-0.2,0.4-0.3,0.9-0.3,1.4c0,0.5,0.1,1,0.3,1.4c0,0,0,0,0,0c0.5,1,1.6,1.7,2.8,1.7
		l4.3,0v0c0.3,0.1,0.5,0.3,0.5,0.6c0,0.3-0.2,0.6-0.5,0.6v0l-6.7,0V18H35c1.3,0,2.5-0.9,2.9-2.1c0,0,0,0,0-0.1
		c0.1-0.3,0.2-0.7,0.2-1C38.1,14.4,38,14.1,37.9,13.7C37.9,13.7,37.9,13.7,37.9,13.7z"/>
</g>
<g>
	<g>
		<path fill="#FFFFFF" d="M17.6,6.5L18.3,5l-6.5,0l-0.6-1.5L6.5,8.1L5,7.5L5,14l-1.5,0.6l4.6,4.6l-0.6,1.5l6.5,0l0.6,1.5l4.6-4.6
			l1.5,0.6l0-6.5l1.5-0.6L17.6,6.5z M15.1,18.4c-3,1.2-6.4-0.2-7.7-3.3c-1.2-3,0.2-6.4,3.3-7.7c3-1.2,6.4,0.2,7.7,3.3
			C19.5,13.7,18.1,17.1,15.1,18.4z"/>
	</g>
	<circle fill="none" cx="12.9" cy="12.9" r="5.9"/>
	<g>
		<polygon fill="#FFFFFF" points="8,6.3 7.4,4.8 10.9,3.4 		"/>
	</g>
	<g>
		<polygon fill="#FFFFFF" points="14.1,4.8 14.7,3.3 18.2,4.8 		"/>
	</g>
	<g>
		<polygon fill="#FFFFFF" points="19.5,8.1 21,7.5 22.4,11 		"/>
	</g>
	<g>
		<polygon fill="#FFFFFF" points="21,14.2 22.4,14.8 21,18.3 		"/>
	</g>
	<g>
		<polygon fill="#FFFFFF" points="17.7,19.5 18.3,21 14.8,22.4 		"/>
	</g>
	<g>
		<polygon fill="#FFFFFF" points="11.5,21 10.9,22.5 7.4,21 		"/>
	</g>
	<g>
		<polygon fill="#FFFFFF" points="4.7,18.3 6.2,17.7 3.3,14.8 		"/>
	</g>
	<g>
		<polygon fill="#FFFFFF" points="4.8,11.6 3.3,11 4.8,7.5 		"/>
	</g>
	<path fill="#FFFFFF" d="M17.8,12.1h-0.5l-0.5,0.3l0.7,0.4l-0.2,1.1l-0.7,1.3l-0.3,0.2h-0.4v-1.1l-0.5-0.8h-0.8L14,12.9l-0.6-0.3
		v-0.7l0.6-0.5l0.5-0.4l0.8,0.2l0.7,0.8l0.3,0.2l0.4,0.3l-0.2-0.3l-0.5-0.5l-0.2-0.4l-0.2-0.3h-0.4h-0.4l-0.6-0.2l0.4-0.2v-0.3V9.7
		V9.4l0.5-0.2l0.3-0.4V8.4h0.1c-0.8-0.5-1.7-0.7-2.7-0.7c-1.1,0-2.1,0.4-3,0.9l0.2,0.1l0.2-0.1l0.5-0.1h0.7l0.3-0.2h0.5h0.6h0.6
		l0.3,0.3h-0.8l-0.3,0.5h-0.4L12,9.5h0.2v0.4l-0.3,0.3l-0.7,0.1l-0.9,1l-0.3,0.3H9.5l0.6,0.5l0.6,0.4h0.8l0.6,0.2l0.5,0.6l-0.3,0.2
		l0,0.3v0.2l-0.1,0.3l-0.5,0.9V16l-0.2,0.2h-0.2l-0.3,0.3l0,0.2l0.3,0.3h-0.5l-0.4-0.4l0-0.4l-0.1-0.7l-0.2-0.3l0-0.4l-0.3-0.7
		L9.2,14v-0.9l0.6-0.4l-0.1-0.5l-0.3-0.1l-0.5-0.3l-0.3-0.7l-0.4,0.2l-0.3-0.2c-0.2,0.5-0.3,1.1-0.3,1.7c0,2.9,2.3,5.2,5.2,5.2
		c2.9,0,5.2-2.3,5.2-5.2c0-0.4-0.1-0.8-0.1-1.2L17.8,12.1z M10.7,12.1l-0.3-0.2l0.3-0.2l0.3,0.1l0.4,0.1L10.7,12.1z M11.8,17.8v-0.3
		h0.3L11.8,17.8z M13.4,8.9L13.8,9l-0.1,0.2L13.1,9L13.4,8.9z M16.9,15.6v-0.3l0.5-0.5C17.5,15.2,16.9,15.6,16.9,15.6z"/>
</g>
</svg>
